<?xml version="1.0" encoding="UTF-8"?>
<svg width="210px" height="210px" viewBox="0 0 210 210" version="1.1" xmlns="http://www.w3.org/2000/svg" xmlns:xlink="http://www.w3.org/1999/xlink">
    <!-- Generator: Sketch 48.2 (47327) - http://www.bohemiancoding.com/sketch -->
    <title>favicon</title>
    <desc>Created with Sketch.</desc>
    <defs></defs>
    <g id="SARK_LOGO" stroke="none" stroke-width="1" fill="none" fill-rule="evenodd">
        <g id="favicon">
            <g id="Group" transform="translate(5.000000, 70.000000)">
                <path d="M197.994987,70 L197.994987,47.5" id="Path-13" stroke="#000000" stroke-width="4"></path>
                <path d="M1.5037594,23 L1.5037594,0.5" id="Path-13" stroke="#000000" stroke-width="4" transform="translate(1.754386, 11.750000) scale(-1, -1) translate(-1.754386, -11.750000) "></path>
                <path d="M197.493734,1 L0,1" id="Path-13" stroke="#000000" stroke-width="4" transform="translate(98.746867, 0.750000) scale(-1, -1) translate(-98.746867, -0.750000) "></path>
                <path d="M200,70.5 L2.00501253,70.5" id="Path-13" stroke="#000000" stroke-width="4" transform="translate(101.002506, 70.250000) scale(-1, -1) translate(-101.002506, -70.250000) "></path>
                <path d="M50.4170583,22.0195312 L45.0246711,22.0195312 C45.0246711,18.1523244 44.3785309,15.6972708 43.0862312,14.6542969 C41.7939315,13.6113229 38.7511988,13.0898438 33.9579417,13.0898438 C28.2718231,13.0898438 24.6064462,13.5878856 22.9617011,14.5839844 C21.3169561,15.5800831 20.4945959,17.800764 20.4945959,21.2460938 C20.4945959,25.1133006 21.140736,27.4687458 22.4330357,28.3125 C23.7253354,29.1562542 27.5669323,29.7304672 33.9579417,30.0351562 C41.45328,30.3632829 46.2170951,31.3124921 48.2495301,32.8828125 C50.281965,34.4531329 51.2981673,37.9687227 51.2981673,43.4296875 C51.2981673,49.335967 50.129241,53.1562413 47.7913534,54.890625 C45.4534658,56.6250087 40.2902185,57.4921875 32.3014568,57.4921875 C25.3700311,57.4921875 20.75894,56.6191494 18.4680451,54.8730469 C16.1771502,53.1269444 15.0317199,49.6054952 15.0317199,44.3085938 L14.9964756,42.1640625 L20.3888628,42.1640625 L20.3888628,43.359375 C20.3888628,47.6484589 21.0467509,50.3144479 22.362547,51.3574219 C23.678343,52.4003958 27.0500199,52.921875 32.4776786,52.921875 C38.7042135,52.921875 42.5340624,52.4003958 43.9673402,51.3574219 C45.4006181,50.3144479 46.1172462,47.5312726 46.1172462,43.0078125 C46.1172462,40.0781104 45.6297041,38.126958 44.6546053,37.1542969 C43.6795064,36.1816358 41.6412279,35.6015634 38.5397086,35.4140625 L32.9006109,35.1328125 L27.543468,34.8515625 C19.3902318,34.2890597 15.3136748,30.0703519 15.3136748,22.1953125 C15.3136748,16.7343477 16.5002231,13.0898529 18.8733553,11.2617188 C21.2464874,9.43358461 25.9809326,8.51953125 33.0768327,8.51953125 C40.2667183,8.51953125 44.9541714,9.36913213 47.1393327,11.0683594 C49.324494,12.7675866 50.4170583,16.4179407 50.4170583,22.0195312 Z M87.3883929,46.8398437 L63.0345395,46.8398437 L59.3338816,57 L53.5890508,57 L71.2112312,9.01171875 L78.8240132,9.01171875 L96.7986372,57 L91.1242951,57 L87.3883929,46.8398437 Z M85.8023966,42.7617188 L75.1233553,13.4414063 L64.5852914,42.7617188 L85.8023966,42.7617188 Z M101.732848,57 L101.732848,9.01171875 L124.641682,9.01171875 C129.810881,9.01171875 133.452762,10.0312398 135.567434,12.0703125 C137.682106,14.1093852 138.739427,17.6484123 138.739427,22.6875 C138.739427,27.1172096 138.163775,30.2050694 137.012453,31.9511719 C135.861131,33.6972744 133.664255,34.8281224 130.421758,35.34375 L130.421758,35.4492188 C135.520467,35.8242206 138.069784,38.9179397 138.069784,44.7304687 L138.069784,57 L132.642152,57 L132.642152,45.9609375 C132.642152,40.359347 130.210316,37.5585938 125.34657,37.5585938 L107.160479,37.5585938 L107.160479,57 L101.732848,57 Z M107.160479,32.9882812 L122.84422,32.9882812 C126.979579,32.9882812 129.7991,32.3613344 131.302867,31.1074219 C132.806633,29.8535094 133.558506,27.4922048 133.558506,24.0234375 C133.558506,19.6874783 133.000476,16.8632878 131.884398,15.5507812 C130.768321,14.2382747 128.377603,13.5820312 124.712171,13.5820312 L107.160479,13.5820312 L107.160479,32.9882812 Z M152.132284,9.01171875 L152.132284,29.9648437 L156.890273,29.9648437 L176.627115,9.01171875 L183.640742,9.01171875 L161.648261,32.1445312 L186.319314,57 L178.882754,57 L156.890273,34.5351562 L152.132284,34.5351562 L152.132284,57 L146.704652,57 L146.704652,9.01171875 L152.132284,9.01171875 Z" id="SARK" fill="#000000"></path>
            </g>
        </g>
    </g>
</svg>